<svg id="Layer_0_Image" data-name="Layer 0 Image" xmlns="http://www.w3.org/2000/svg" width="480.61" height="409.85" viewBox="0 0 480.61 409.85"><path d="M103.6,261.49c2.12-.24,3.72-.28,5.27-.62a136.8,136.8,0,0,0,56.56-27,16.59,16.59,0,0,0,5.37-7.3A49,49,0,0,1,182.45,209c3.51-3.44,6.52-4.17,9.21-2.55,2.84,1.72,3.92,5.28,1.86,9.75a92,92,0,0,1-7.77,13,96.23,96.23,0,0,1-6.64,7.91c.85,3,3.18,3.75,5.52,3.73,4.15,0,8.47.1,12.4-1,11.89-3.3,23.67-7,35.41-10.83,30.06-9.74,60.07-19.66,90.15-29.35a61.74,61.74,0,0,1,13.82-2.85c7.79-.62,11.41,3.61,10.3,11.45-.45,3.23-1.33,6.4-2,9.6-.5,2.45-1,4.9-1.73,8.76,3.06-1.68,5.18-2.53,6.94-3.85,7.11-5.36,14.21-10.75,21.13-16.34,14.71-11.87,29.27-23.92,44-35.81,4-3.19,8.15-6.1,12.31-9A37.37,37.37,0,0,1,433,158.3c3.11-1.47,6.36-1.88,9.27.43a8,8,0,0,1,2.71,8.85,79.64,79.64,0,0,1-4.37,12.28c-5.34,11.35-11,22.54-16.47,33.82-21.54,44.22-39.33,89.85-51.92,137.45-2,7.54-3.49,15.13-2.87,23.53a7.22,7.22,0,0,1-4.56-5.54,61.62,61.62,0,0,1-2-12.3c-.34-13.75,2.41-27.12,6-40.29,10.26-37.29,25.13-72.78,42.39-107.3,4.87-9.75,10.05-19.35,15.08-29a12.16,12.16,0,0,0,1.65-5.55c-1.52,1.09-3.08,2.13-4.54,3.29-16,12.84-32,25.75-48.09,38.52-6.12,4.85-12.35,9.6-18.79,14a40.94,40.94,0,0,1-10.72,5.21c-6.73,2.08-11.75-1.75-11.42-8.83.22-4.66,1.58-9.26,2.46-13.89.4-2.07.88-4.13,1.53-7.19-3.66,1-6.43,1.68-9.07,2.64-19,6.86-37.76,14.16-56.86,20.6-20.65,7-41.51,13.29-62.38,19.56a97.51,97.51,0,0,1-17.13,3c-8.2.93-16-.15-22.16-7-19.75,15.64-41.84,25.66-66.37,29.5,0,9.26-.34,18,.07,26.65q1.78,37.57,4.14,75.13c.48,7.6,1.84,15.14,2.73,22.72a60.17,60.17,0,0,1,.6,8.67c0,.94-1.32,2.54-2.14,2.61a4.73,4.73,0,0,1-3.53-1.58,8.68,8.68,0,0,1-1.27-4.09c-1.25-8.81-2.85-17.6-3.53-26.46-1.3-16.94-5.12-33.38-9.11-49.8-3.91-16.05-8.15-32-12.27-48-.36-1.4-.85-2.76-1.36-4.4-4.69-.74-9.36-1.28-13.93-2.25Q27.92,265.45,8,233.41A51.23,51.23,0,0,1,.11,209.85C-.46,202,1.2,194.66,5.94,188.22c7.19-9.78,18.71-12.52,29.54-7.06,5.48,2.77,9.71,7,13.43,11.75a94.26,94.26,0,0,1,13.85,24c5.31,13.7,10.06,27.63,15,41.46.55,1.53,1,3.09,1.6,4.92,5.32.18,10.5.51,15.93-.61,0-6.2.07-12,0-17.79-.58-42.55-.08-85.08,2.47-127.57,1.77-29.58,4.27-59.1,10.8-88.1,1.68-7.42,4.07-14.69,6.34-22A20.24,20.24,0,0,1,118,1.58,3.21,3.21,0,0,1,122.8.73c1.57,1.13,1.37,3-.07,5.07a13.54,13.54,0,0,0-2.3,4.7c-3,14.59-6.46,29.11-8.48,43.83-6.61,48.35-7.93,97.07-8.71,145.79-.3,18.17,0,36.36.05,54.54C103.3,256.79,103.48,258.92,103.6,261.49ZM75,262.75c-5.82-19.16-12-37.3-22-53.87a79.15,79.15,0,0,0-8.92-12.31,40,40,0,0,0-10-8.18c-8.61-4.74-17.08-1.85-21.28,7.07a28.45,28.45,0,0,0-2.35,9.39c-.57,6.11,1.19,11.9,3.88,17.32,8,16.08,20.35,27.59,36.73,34.81A66.13,66.13,0,0,0,75,262.75ZM95.6,275.11l-12.68.65,13.82,51.07.81-.18C96.91,309.69,96.27,292.73,95.6,275.11Z"/><path d="M427.15,285.08a21.36,21.36,0,0,1-.67-13.11c3.45-15.48,10.69-29.28,19.21-42.46A14.07,14.07,0,0,1,451,225c1.13-.58,3.21-.15,4.45.55,1.67.94,1.39,2.78.58,4.37-.9,1.78-1.9,3.52-2.8,5.3C445.8,249.8,438.44,264.4,431,279,429.91,281.1,428.44,283.05,427.15,285.08Z"/><path d="M456.63,272.8a26.55,26.55,0,0,1,0-4.61,103,103,0,0,1,11.5-32.05,19.93,19.93,0,0,1,2.47-3.55,5.79,5.79,0,0,1,6.9-1.53,5.4,5.4,0,0,1,3,5.86,14.8,14.8,0,0,1-1.15,4.16c-5,11.4-12.67,21-20.62,30.47A9.24,9.24,0,0,1,456.63,272.8Z"/></svg>